<mxfile host="app.diagrams.net" modified="2022-05-24T10:33:35.687Z" agent="5.0 (X11; Linux x86_64) AppleWebKit/537.36 (KHTML, like Gecko) Chrome/101.0.4951.64 Safari/537.36" etag="FMv8NRd7Segk0HAkabIU" version="18.0.5" type="github">
  <diagram id="hRZjEq_BK22MqC9YCZgR" name="Page-1">
    <mxGraphModel dx="1355" dy="777" grid="1" gridSize="10" guides="1" tooltips="1" connect="1" arrows="1" fold="1" page="1" pageScale="1" pageWidth="827" pageHeight="1169" math="0" shadow="0">
      <root>
        <mxCell id="0" />
        <mxCell id="1" parent="0" />
        <mxCell id="rXyoQtg_9MReQiFkFRUw-1" value="Occurrence de piqûre(s) infectante(s) (transmission)" style="swimlane;fontStyle=1;align=center;verticalAlign=top;childLayout=stackLayout;horizontal=1;startSize=26;horizontalStack=0;resizeParent=1;resizeParentMax=0;resizeLast=0;collapsible=1;marginBottom=0;" vertex="1" parent="1">
          <mxGeometry x="180" y="30" width="320" height="80" as="geometry" />
        </mxCell>
        <mxCell id="rXyoQtg_9MReQiFkFRUw-2" value="+ ..." style="text;strokeColor=none;fillColor=none;align=left;verticalAlign=top;spacingLeft=4;spacingRight=4;overflow=hidden;rotatable=0;points=[[0,0.5],[1,0.5]];portConstraint=eastwest;" vertex="1" parent="rXyoQtg_9MReQiFkFRUw-1">
          <mxGeometry y="26" width="320" height="44" as="geometry" />
        </mxCell>
        <mxCell id="rXyoQtg_9MReQiFkFRUw-3" value="" style="line;strokeWidth=1;fillColor=none;align=left;verticalAlign=middle;spacingTop=-1;spacingLeft=3;spacingRight=3;rotatable=0;labelPosition=right;points=[];portConstraint=eastwest;" vertex="1" parent="rXyoQtg_9MReQiFkFRUw-1">
          <mxGeometry y="70" width="320" height="10" as="geometry" />
        </mxCell>
        <mxCell id="rXyoQtg_9MReQiFkFRUw-4" style="edgeStyle=orthogonalEdgeStyle;rounded=0;orthogonalLoop=1;jettySize=auto;html=1;exitX=0.5;exitY=0;exitDx=0;exitDy=0;entryX=0.5;entryY=1;entryDx=0;entryDy=0;endArrow=none;endFill=0;" edge="1" parent="1" source="rXyoQtg_9MReQiFkFRUw-21" target="rXyoQtg_9MReQiFkFRUw-1">
          <mxGeometry relative="1" as="geometry">
            <mxPoint x="425" y="200" as="sourcePoint" />
          </mxGeometry>
        </mxCell>
        <mxCell id="rXyoQtg_9MReQiFkFRUw-41" value="permet" style="edgeLabel;html=1;align=center;verticalAlign=middle;resizable=0;points=[];" vertex="1" connectable="0" parent="rXyoQtg_9MReQiFkFRUw-4">
          <mxGeometry x="-0.1157" y="1" relative="1" as="geometry">
            <mxPoint x="-14" y="-10" as="offset" />
          </mxGeometry>
        </mxCell>
        <mxCell id="rXyoQtg_9MReQiFkFRUw-5" value="Agent pathogène" style="swimlane;fontStyle=1;align=center;verticalAlign=top;childLayout=stackLayout;horizontal=1;startSize=26;horizontalStack=0;resizeParent=1;resizeParentMax=0;resizeLast=0;collapsible=1;marginBottom=0;" vertex="1" parent="1">
          <mxGeometry x="160" y="301" width="230" height="80" as="geometry" />
        </mxCell>
        <mxCell id="rXyoQtg_9MReQiFkFRUw-6" value="+ type: char" style="text;strokeColor=none;fillColor=none;align=left;verticalAlign=top;spacingLeft=4;spacingRight=4;overflow=hidden;rotatable=0;points=[[0,0.5],[1,0.5]];portConstraint=eastwest;" vertex="1" parent="rXyoQtg_9MReQiFkFRUw-5">
          <mxGeometry y="26" width="230" height="44" as="geometry" />
        </mxCell>
        <mxCell id="rXyoQtg_9MReQiFkFRUw-7" value="" style="line;strokeWidth=1;fillColor=none;align=left;verticalAlign=middle;spacingTop=-1;spacingLeft=3;spacingRight=3;rotatable=0;labelPosition=right;points=[];portConstraint=eastwest;" vertex="1" parent="rXyoQtg_9MReQiFkFRUw-5">
          <mxGeometry y="70" width="230" height="10" as="geometry" />
        </mxCell>
        <mxCell id="rXyoQtg_9MReQiFkFRUw-8" value="Population" style="swimlane;fontStyle=1;align=center;verticalAlign=top;childLayout=stackLayout;horizontal=1;startSize=26;horizontalStack=0;resizeParent=1;resizeParentMax=0;resizeLast=0;collapsible=1;marginBottom=0;" vertex="1" parent="1">
          <mxGeometry x="600" y="301" width="180" height="80" as="geometry" />
        </mxCell>
        <mxCell id="rXyoQtg_9MReQiFkFRUw-9" value="+ ..." style="text;strokeColor=none;fillColor=none;align=left;verticalAlign=top;spacingLeft=4;spacingRight=4;overflow=hidden;rotatable=0;points=[[0,0.5],[1,0.5]];portConstraint=eastwest;" vertex="1" parent="rXyoQtg_9MReQiFkFRUw-8">
          <mxGeometry y="26" width="180" height="44" as="geometry" />
        </mxCell>
        <mxCell id="rXyoQtg_9MReQiFkFRUw-10" value="" style="line;strokeWidth=1;fillColor=none;align=left;verticalAlign=middle;spacingTop=-1;spacingLeft=3;spacingRight=3;rotatable=0;labelPosition=right;points=[];portConstraint=eastwest;" vertex="1" parent="rXyoQtg_9MReQiFkFRUw-8">
          <mxGeometry y="70" width="180" height="10" as="geometry" />
        </mxCell>
        <mxCell id="rXyoQtg_9MReQiFkFRUw-14" style="edgeStyle=orthogonalEdgeStyle;rounded=0;orthogonalLoop=1;jettySize=auto;html=1;exitX=1;exitY=0.5;exitDx=0;exitDy=0;entryX=0;entryY=0.5;entryDx=0;entryDy=0;endArrow=none;endFill=0;" edge="1" parent="1" source="rXyoQtg_9MReQiFkFRUw-6" target="rXyoQtg_9MReQiFkFRUw-9">
          <mxGeometry relative="1" as="geometry" />
        </mxCell>
        <mxCell id="rXyoQtg_9MReQiFkFRUw-37" style="edgeStyle=orthogonalEdgeStyle;rounded=0;orthogonalLoop=1;jettySize=auto;html=1;exitX=0.5;exitY=0;exitDx=0;exitDy=0;entryX=0.5;entryY=1;entryDx=0;entryDy=0;endArrow=block;endFill=0;" edge="1" parent="1" source="rXyoQtg_9MReQiFkFRUw-15" target="rXyoQtg_9MReQiFkFRUw-26">
          <mxGeometry relative="1" as="geometry" />
        </mxCell>
        <mxCell id="rXyoQtg_9MReQiFkFRUw-15" value="Plasmodium" style="swimlane;fontStyle=1;align=center;verticalAlign=top;childLayout=stackLayout;horizontal=1;startSize=26;horizontalStack=0;resizeParent=1;resizeParentMax=0;resizeLast=0;collapsible=1;marginBottom=0;" vertex="1" parent="1">
          <mxGeometry x="80" y="570" width="140" height="80" as="geometry" />
        </mxCell>
        <mxCell id="rXyoQtg_9MReQiFkFRUw-16" value="+ espèce: char" style="text;strokeColor=none;fillColor=none;align=left;verticalAlign=top;spacingLeft=4;spacingRight=4;overflow=hidden;rotatable=0;points=[[0,0.5],[1,0.5]];portConstraint=eastwest;" vertex="1" parent="rXyoQtg_9MReQiFkFRUw-15">
          <mxGeometry y="26" width="140" height="44" as="geometry" />
        </mxCell>
        <mxCell id="rXyoQtg_9MReQiFkFRUw-17" value="" style="line;strokeWidth=1;fillColor=none;align=left;verticalAlign=middle;spacingTop=-1;spacingLeft=3;spacingRight=3;rotatable=0;labelPosition=right;points=[];portConstraint=eastwest;" vertex="1" parent="rXyoQtg_9MReQiFkFRUw-15">
          <mxGeometry y="70" width="140" height="10" as="geometry" />
        </mxCell>
        <mxCell id="rXyoQtg_9MReQiFkFRUw-38" style="edgeStyle=orthogonalEdgeStyle;rounded=0;orthogonalLoop=1;jettySize=auto;html=1;exitX=0.5;exitY=0;exitDx=0;exitDy=0;entryX=0.25;entryY=1;entryDx=0;entryDy=0;endArrow=block;endFill=0;" edge="1" parent="1" source="rXyoQtg_9MReQiFkFRUw-18" target="rXyoQtg_9MReQiFkFRUw-15">
          <mxGeometry relative="1" as="geometry" />
        </mxCell>
        <mxCell id="rXyoQtg_9MReQiFkFRUw-18" value="P. falciparum" style="swimlane;fontStyle=1;align=center;verticalAlign=top;childLayout=stackLayout;horizontal=1;startSize=26;horizontalStack=0;resizeParent=1;resizeParentMax=0;resizeLast=0;collapsible=1;marginBottom=0;" vertex="1" parent="1">
          <mxGeometry x="40" y="721" width="150" height="80" as="geometry" />
        </mxCell>
        <mxCell id="rXyoQtg_9MReQiFkFRUw-19" value="+ ..." style="text;strokeColor=none;fillColor=none;align=left;verticalAlign=top;spacingLeft=4;spacingRight=4;overflow=hidden;rotatable=0;points=[[0,0.5],[1,0.5]];portConstraint=eastwest;" vertex="1" parent="rXyoQtg_9MReQiFkFRUw-18">
          <mxGeometry y="26" width="150" height="44" as="geometry" />
        </mxCell>
        <mxCell id="rXyoQtg_9MReQiFkFRUw-20" value="" style="line;strokeWidth=1;fillColor=none;align=left;verticalAlign=middle;spacingTop=-1;spacingLeft=3;spacingRight=3;rotatable=0;labelPosition=right;points=[];portConstraint=eastwest;" vertex="1" parent="rXyoQtg_9MReQiFkFRUw-18">
          <mxGeometry y="70" width="150" height="10" as="geometry" />
        </mxCell>
        <mxCell id="rXyoQtg_9MReQiFkFRUw-25" style="edgeStyle=orthogonalEdgeStyle;rounded=0;orthogonalLoop=1;jettySize=auto;html=1;exitX=0.5;exitY=1;exitDx=0;exitDy=0;endArrow=none;endFill=0;dashed=1;" edge="1" parent="1" source="rXyoQtg_9MReQiFkFRUw-21">
          <mxGeometry relative="1" as="geometry">
            <mxPoint x="490" y="350" as="targetPoint" />
          </mxGeometry>
        </mxCell>
        <mxCell id="rXyoQtg_9MReQiFkFRUw-21" value="Circulation agent pathogène" style="swimlane;fontStyle=1;align=center;verticalAlign=top;childLayout=stackLayout;horizontal=1;startSize=26;horizontalStack=0;resizeParent=1;resizeParentMax=0;resizeLast=0;collapsible=1;marginBottom=0;" vertex="1" parent="1">
          <mxGeometry x="320" y="190" width="250" height="60" as="geometry" />
        </mxCell>
        <mxCell id="rXyoQtg_9MReQiFkFRUw-22" value="+ charge parasitaire (~tx. d&#39;incidence): real" style="text;strokeColor=none;fillColor=none;align=left;verticalAlign=top;spacingLeft=4;spacingRight=4;overflow=hidden;rotatable=0;points=[[0,0.5],[1,0.5]];portConstraint=eastwest;" vertex="1" parent="rXyoQtg_9MReQiFkFRUw-21">
          <mxGeometry y="26" width="250" height="24" as="geometry" />
        </mxCell>
        <mxCell id="rXyoQtg_9MReQiFkFRUw-23" value="" style="line;strokeWidth=1;fillColor=none;align=left;verticalAlign=middle;spacingTop=-1;spacingLeft=3;spacingRight=3;rotatable=0;labelPosition=right;points=[];portConstraint=eastwest;" vertex="1" parent="rXyoQtg_9MReQiFkFRUw-21">
          <mxGeometry y="50" width="250" height="10" as="geometry" />
        </mxCell>
        <mxCell id="rXyoQtg_9MReQiFkFRUw-35" style="edgeStyle=orthogonalEdgeStyle;rounded=0;orthogonalLoop=1;jettySize=auto;html=1;exitX=0.5;exitY=0;exitDx=0;exitDy=0;entryX=0.25;entryY=1;entryDx=0;entryDy=0;endArrow=block;endFill=0;" edge="1" parent="1" source="rXyoQtg_9MReQiFkFRUw-26" target="rXyoQtg_9MReQiFkFRUw-5">
          <mxGeometry relative="1" as="geometry" />
        </mxCell>
        <mxCell id="rXyoQtg_9MReQiFkFRUw-26" value="Parasite" style="swimlane;fontStyle=1;align=center;verticalAlign=top;childLayout=stackLayout;horizontal=1;startSize=26;horizontalStack=0;resizeParent=1;resizeParentMax=0;resizeLast=0;collapsible=1;marginBottom=0;" vertex="1" parent="1">
          <mxGeometry x="30" y="441" width="120" height="80" as="geometry" />
        </mxCell>
        <mxCell id="rXyoQtg_9MReQiFkFRUw-27" value="+ genre: char" style="text;strokeColor=none;fillColor=none;align=left;verticalAlign=top;spacingLeft=4;spacingRight=4;overflow=hidden;rotatable=0;points=[[0,0.5],[1,0.5]];portConstraint=eastwest;" vertex="1" parent="rXyoQtg_9MReQiFkFRUw-26">
          <mxGeometry y="26" width="120" height="44" as="geometry" />
        </mxCell>
        <mxCell id="rXyoQtg_9MReQiFkFRUw-28" value="" style="line;strokeWidth=1;fillColor=none;align=left;verticalAlign=middle;spacingTop=-1;spacingLeft=3;spacingRight=3;rotatable=0;labelPosition=right;points=[];portConstraint=eastwest;" vertex="1" parent="rXyoQtg_9MReQiFkFRUw-26">
          <mxGeometry y="70" width="120" height="10" as="geometry" />
        </mxCell>
        <mxCell id="rXyoQtg_9MReQiFkFRUw-36" style="edgeStyle=orthogonalEdgeStyle;rounded=0;orthogonalLoop=1;jettySize=auto;html=1;exitX=0.5;exitY=0;exitDx=0;exitDy=0;entryX=0.75;entryY=1;entryDx=0;entryDy=0;endArrow=block;endFill=0;" edge="1" parent="1" source="rXyoQtg_9MReQiFkFRUw-29" target="rXyoQtg_9MReQiFkFRUw-5">
          <mxGeometry relative="1" as="geometry" />
        </mxCell>
        <mxCell id="rXyoQtg_9MReQiFkFRUw-29" value="Virus" style="swimlane;fontStyle=1;align=center;verticalAlign=top;childLayout=stackLayout;horizontal=1;startSize=26;horizontalStack=0;resizeParent=1;resizeParentMax=0;resizeLast=0;collapsible=1;marginBottom=0;" vertex="1" parent="1">
          <mxGeometry x="200" y="441" width="101" height="80" as="geometry" />
        </mxCell>
        <mxCell id="rXyoQtg_9MReQiFkFRUw-30" value="+ genre: char" style="text;strokeColor=none;fillColor=none;align=left;verticalAlign=top;spacingLeft=4;spacingRight=4;overflow=hidden;rotatable=0;points=[[0,0.5],[1,0.5]];portConstraint=eastwest;" vertex="1" parent="rXyoQtg_9MReQiFkFRUw-29">
          <mxGeometry y="26" width="101" height="44" as="geometry" />
        </mxCell>
        <mxCell id="rXyoQtg_9MReQiFkFRUw-31" value="" style="line;strokeWidth=1;fillColor=none;align=left;verticalAlign=middle;spacingTop=-1;spacingLeft=3;spacingRight=3;rotatable=0;labelPosition=right;points=[];portConstraint=eastwest;" vertex="1" parent="rXyoQtg_9MReQiFkFRUw-29">
          <mxGeometry y="70" width="101" height="10" as="geometry" />
        </mxCell>
        <mxCell id="rXyoQtg_9MReQiFkFRUw-39" style="edgeStyle=orthogonalEdgeStyle;rounded=0;orthogonalLoop=1;jettySize=auto;html=1;exitX=0.5;exitY=0;exitDx=0;exitDy=0;entryX=0.75;entryY=1;entryDx=0;entryDy=0;endArrow=block;endFill=0;" edge="1" parent="1" source="rXyoQtg_9MReQiFkFRUw-32" target="rXyoQtg_9MReQiFkFRUw-15">
          <mxGeometry relative="1" as="geometry" />
        </mxCell>
        <mxCell id="rXyoQtg_9MReQiFkFRUw-32" value="P. vivax" style="swimlane;fontStyle=1;align=center;verticalAlign=top;childLayout=stackLayout;horizontal=1;startSize=26;horizontalStack=0;resizeParent=1;resizeParentMax=0;resizeLast=0;collapsible=1;marginBottom=0;" vertex="1" parent="1">
          <mxGeometry x="205" y="721" width="140" height="80" as="geometry" />
        </mxCell>
        <mxCell id="rXyoQtg_9MReQiFkFRUw-33" value="+ ..." style="text;strokeColor=none;fillColor=none;align=left;verticalAlign=top;spacingLeft=4;spacingRight=4;overflow=hidden;rotatable=0;points=[[0,0.5],[1,0.5]];portConstraint=eastwest;" vertex="1" parent="rXyoQtg_9MReQiFkFRUw-32">
          <mxGeometry y="26" width="140" height="44" as="geometry" />
        </mxCell>
        <mxCell id="rXyoQtg_9MReQiFkFRUw-34" value="" style="line;strokeWidth=1;fillColor=none;align=left;verticalAlign=middle;spacingTop=-1;spacingLeft=3;spacingRight=3;rotatable=0;labelPosition=right;points=[];portConstraint=eastwest;" vertex="1" parent="rXyoQtg_9MReQiFkFRUw-32">
          <mxGeometry y="70" width="140" height="10" as="geometry" />
        </mxCell>
        <mxCell id="rXyoQtg_9MReQiFkFRUw-40" value="" style="triangle;aspect=fixed;fillColor=#000000;direction=west;" vertex="1" parent="1">
          <mxGeometry x="360" y="136" width="6" height="12" as="geometry" />
        </mxCell>
        <mxCell id="rXyoQtg_9MReQiFkFRUw-45" style="edgeStyle=orthogonalEdgeStyle;rounded=0;orthogonalLoop=1;jettySize=auto;html=1;exitX=0.5;exitY=0;exitDx=0;exitDy=0;entryX=0.5;entryY=1;entryDx=0;entryDy=0;endArrow=diamondThin;endFill=1;" edge="1" parent="1" source="rXyoQtg_9MReQiFkFRUw-42" target="rXyoQtg_9MReQiFkFRUw-8">
          <mxGeometry relative="1" as="geometry" />
        </mxCell>
        <mxCell id="rXyoQtg_9MReQiFkFRUw-42" value="Individu" style="swimlane;fontStyle=1;align=center;verticalAlign=top;childLayout=stackLayout;horizontal=1;startSize=26;horizontalStack=0;resizeParent=1;resizeParentMax=0;resizeLast=0;collapsible=1;marginBottom=0;" vertex="1" parent="1">
          <mxGeometry x="600" y="450" width="180" height="80" as="geometry" />
        </mxCell>
        <mxCell id="rXyoQtg_9MReQiFkFRUw-43" value="+ ..." style="text;strokeColor=none;fillColor=none;align=left;verticalAlign=top;spacingLeft=4;spacingRight=4;overflow=hidden;rotatable=0;points=[[0,0.5],[1,0.5]];portConstraint=eastwest;" vertex="1" parent="rXyoQtg_9MReQiFkFRUw-42">
          <mxGeometry y="26" width="180" height="44" as="geometry" />
        </mxCell>
        <mxCell id="rXyoQtg_9MReQiFkFRUw-44" value="" style="line;strokeWidth=1;fillColor=none;align=left;verticalAlign=middle;spacingTop=-1;spacingLeft=3;spacingRight=3;rotatable=0;labelPosition=right;points=[];portConstraint=eastwest;" vertex="1" parent="rXyoQtg_9MReQiFkFRUw-42">
          <mxGeometry y="70" width="180" height="10" as="geometry" />
        </mxCell>
        <mxCell id="rXyoQtg_9MReQiFkFRUw-46" value="Cas" style="swimlane;fontStyle=1;align=center;verticalAlign=top;childLayout=stackLayout;horizontal=1;startSize=26;horizontalStack=0;resizeParent=1;resizeParentMax=0;resizeLast=0;collapsible=1;marginBottom=0;" vertex="1" parent="1">
          <mxGeometry x="480" y="521" width="110" height="60" as="geometry" />
        </mxCell>
        <mxCell id="rXyoQtg_9MReQiFkFRUw-47" value="+ ... " style="text;strokeColor=none;fillColor=none;align=left;verticalAlign=top;spacingLeft=4;spacingRight=4;overflow=hidden;rotatable=0;points=[[0,0.5],[1,0.5]];portConstraint=eastwest;" vertex="1" parent="rXyoQtg_9MReQiFkFRUw-46">
          <mxGeometry y="26" width="110" height="24" as="geometry" />
        </mxCell>
        <mxCell id="rXyoQtg_9MReQiFkFRUw-48" value="" style="line;strokeWidth=1;fillColor=none;align=left;verticalAlign=middle;spacingTop=-1;spacingLeft=3;spacingRight=3;rotatable=0;labelPosition=right;points=[];portConstraint=eastwest;" vertex="1" parent="rXyoQtg_9MReQiFkFRUw-46">
          <mxGeometry y="50" width="110" height="10" as="geometry" />
        </mxCell>
        <mxCell id="rXyoQtg_9MReQiFkFRUw-49" style="edgeStyle=orthogonalEdgeStyle;rounded=0;orthogonalLoop=1;jettySize=auto;html=1;exitX=1.004;exitY=0.75;exitDx=0;exitDy=0;entryX=0;entryY=0.25;entryDx=0;entryDy=0;endArrow=none;endFill=0;exitPerimeter=0;" edge="1" parent="1" source="rXyoQtg_9MReQiFkFRUw-6" target="rXyoQtg_9MReQiFkFRUw-42">
          <mxGeometry relative="1" as="geometry">
            <mxPoint x="400" y="359" as="sourcePoint" />
            <mxPoint x="610" y="359" as="targetPoint" />
          </mxGeometry>
        </mxCell>
        <mxCell id="rXyoQtg_9MReQiFkFRUw-50" style="edgeStyle=orthogonalEdgeStyle;rounded=0;orthogonalLoop=1;jettySize=auto;html=1;exitX=0.5;exitY=0;exitDx=0;exitDy=0;endArrow=none;endFill=0;dashed=1;" edge="1" parent="1" source="rXyoQtg_9MReQiFkFRUw-46">
          <mxGeometry relative="1" as="geometry">
            <mxPoint x="500" y="470" as="targetPoint" />
            <mxPoint x="455" y="260" as="sourcePoint" />
          </mxGeometry>
        </mxCell>
        <mxCell id="rXyoQtg_9MReQiFkFRUw-57" style="edgeStyle=orthogonalEdgeStyle;rounded=0;orthogonalLoop=1;jettySize=auto;html=1;exitX=0.5;exitY=0;exitDx=0;exitDy=0;entryX=0.25;entryY=1;entryDx=0;entryDy=0;endArrow=block;endFill=0;" edge="1" parent="1" source="rXyoQtg_9MReQiFkFRUw-51" target="rXyoQtg_9MReQiFkFRUw-46">
          <mxGeometry relative="1" as="geometry" />
        </mxCell>
        <mxCell id="rXyoQtg_9MReQiFkFRUw-51" value="Accès palustre" style="swimlane;fontStyle=1;align=center;verticalAlign=top;childLayout=stackLayout;horizontal=1;startSize=26;horizontalStack=0;resizeParent=1;resizeParentMax=0;resizeLast=0;collapsible=1;marginBottom=0;" vertex="1" parent="1">
          <mxGeometry x="440" y="640" width="110" height="60" as="geometry" />
        </mxCell>
        <mxCell id="rXyoQtg_9MReQiFkFRUw-52" value="+ ... " style="text;strokeColor=none;fillColor=none;align=left;verticalAlign=top;spacingLeft=4;spacingRight=4;overflow=hidden;rotatable=0;points=[[0,0.5],[1,0.5]];portConstraint=eastwest;" vertex="1" parent="rXyoQtg_9MReQiFkFRUw-51">
          <mxGeometry y="26" width="110" height="24" as="geometry" />
        </mxCell>
        <mxCell id="rXyoQtg_9MReQiFkFRUw-53" value="" style="line;strokeWidth=1;fillColor=none;align=left;verticalAlign=middle;spacingTop=-1;spacingLeft=3;spacingRight=3;rotatable=0;labelPosition=right;points=[];portConstraint=eastwest;" vertex="1" parent="rXyoQtg_9MReQiFkFRUw-51">
          <mxGeometry y="50" width="110" height="10" as="geometry" />
        </mxCell>
        <mxCell id="rXyoQtg_9MReQiFkFRUw-58" style="edgeStyle=orthogonalEdgeStyle;rounded=0;orthogonalLoop=1;jettySize=auto;html=1;exitX=0.5;exitY=0;exitDx=0;exitDy=0;entryX=0.75;entryY=1;entryDx=0;entryDy=0;endArrow=block;endFill=0;" edge="1" parent="1" source="rXyoQtg_9MReQiFkFRUw-54" target="rXyoQtg_9MReQiFkFRUw-46">
          <mxGeometry relative="1" as="geometry" />
        </mxCell>
        <mxCell id="rXyoQtg_9MReQiFkFRUw-54" value="Cas asymptomatique" style="swimlane;fontStyle=1;align=center;verticalAlign=top;childLayout=stackLayout;horizontal=1;startSize=26;horizontalStack=0;resizeParent=1;resizeParentMax=0;resizeLast=0;collapsible=1;marginBottom=0;" vertex="1" parent="1">
          <mxGeometry x="580" y="640" width="160" height="60" as="geometry" />
        </mxCell>
        <mxCell id="rXyoQtg_9MReQiFkFRUw-55" value="+ ... " style="text;strokeColor=none;fillColor=none;align=left;verticalAlign=top;spacingLeft=4;spacingRight=4;overflow=hidden;rotatable=0;points=[[0,0.5],[1,0.5]];portConstraint=eastwest;" vertex="1" parent="rXyoQtg_9MReQiFkFRUw-54">
          <mxGeometry y="26" width="160" height="24" as="geometry" />
        </mxCell>
        <mxCell id="rXyoQtg_9MReQiFkFRUw-56" value="" style="line;strokeWidth=1;fillColor=none;align=left;verticalAlign=middle;spacingTop=-1;spacingLeft=3;spacingRight=3;rotatable=0;labelPosition=right;points=[];portConstraint=eastwest;" vertex="1" parent="rXyoQtg_9MReQiFkFRUw-54">
          <mxGeometry y="50" width="160" height="10" as="geometry" />
        </mxCell>
      </root>
    </mxGraphModel>
  </diagram>
</mxfile>
